<svg width="170" height="57" viewBox="0 0 170 57" fill="none" xmlns="http://www.w3.org/2000/svg">
<path d="M0.488281 29.0098V28.8926L0.615234 28.8535C0.85612 28.7884 1.08724 28.6029 1.30859 28.2969C1.61458 27.8867 1.79688 27.2682 1.85547 26.4414V3.4043C1.79688 2.60352 1.62435 1.99805 1.33789 1.58789C1.11003 1.26237 0.872396 1.0638 0.625 0.992188L0.488281 0.953125V0.835938C9.47266 0.835938 14.0169 0.839193 14.1211 0.845703C15.2214 0.910807 16.2109 1.22331 17.0898 1.7832C17.9753 2.3431 18.6784 3.07878 19.1992 3.99023C19.7266 4.90169 19.9902 5.91081 19.9902 7.01758C19.9902 7.89648 19.8177 8.72331 19.4727 9.49805C19.1276 10.2663 18.6523 10.9368 18.0469 11.5098C17.4479 12.0762 16.7513 12.5091 15.957 12.8086C17.4154 12.8802 18.7272 13.2806 19.8926 14.0098C21.0645 14.7389 21.9987 15.7057 22.6953 16.9102C23.3919 18.1146 23.7402 19.4427 23.7402 20.8945C23.7402 22.3854 23.3757 23.7461 22.6465 24.9766C21.9173 26.2005 20.9375 27.1771 19.707 27.9062C18.4831 28.6354 17.1289 29 15.6445 29L0.488281 29.0098ZM14.834 12.7988C14.9251 12.7598 15.013 12.7109 15.0977 12.6523C15.7617 12.2227 16.3021 11.5033 16.7188 10.4941C17.1354 9.47852 17.3438 8.31966 17.3438 7.01758C17.3438 6.12565 17.2428 5.29557 17.041 4.52734C16.8392 3.7526 16.5625 3.08854 16.2109 2.53516C15.8333 2.00781 15.446 1.65951 15.0488 1.49023C14.6517 1.32096 14.3392 1.23633 14.1113 1.23633H14.082C13.8997 1.22982 12.5651 1.22656 10.0781 1.22656H6.51367C6.03841 1.59766 5.76172 2.32357 5.68359 3.4043V12.7988H14.834ZM14.7168 28.6094C15.6152 28.3359 16.4128 27.8314 17.1094 27.0957C17.806 26.36 18.3561 25.4583 18.7598 24.3906C19.1699 23.3164 19.375 22.151 19.375 20.8945C19.375 19.6445 19.1699 18.4857 18.7598 17.418C18.3561 16.3438 17.806 15.4388 17.1094 14.7031C16.4128 13.9674 15.6152 13.4629 14.7168 13.1895H5.68359V26.4414C5.76172 27.5156 6.0319 28.2383 6.49414 28.6094H14.7168ZM47.2363 28.9902H40.6836V28.873L40.8105 28.8438C40.8952 28.8177 40.9993 28.7624 41.123 28.6777C41.2467 28.5931 41.3737 28.4629 41.5039 28.2871C41.6341 28.1113 41.748 27.8737 41.8457 27.5742C41.9434 27.2682 42.0085 26.8874 42.041 26.4316V20.7871L42.3828 20.2402C42.819 19.498 43.304 18.7461 43.8379 17.9844C44.3783 17.2161 45.0586 16.4154 45.8789 15.582V26.4316C45.9049 26.8874 45.9668 27.2682 46.0645 27.5742C46.1686 27.8737 46.2858 28.1113 46.416 28.2871C46.5462 28.4629 46.6732 28.5931 46.7969 28.6777C46.9206 28.7624 47.0247 28.8177 47.1094 28.8438L47.2363 28.873V28.9902ZM28.7988 29.0195C27.4837 29.0195 26.4551 28.7461 25.7129 28.1992C24.873 27.5612 24.4531 26.5944 24.4531 25.2988C24.4531 25.1296 24.4596 24.9538 24.4727 24.7715C24.5964 23.4368 25.2344 22.2812 26.3867 21.3047C27.3047 20.5299 28.5221 19.8887 30.0391 19.3809C31.4779 18.9121 32.9102 18.5996 34.3359 18.4434V15.4453C34.3359 14.5859 34.2318 13.9382 34.0234 13.502C33.8216 13.0592 33.5091 12.7565 33.0859 12.5938C32.6628 12.431 32.1257 12.3496 31.4746 12.3496C31.1621 12.3757 30.8496 12.4245 30.5371 12.4961C30.153 12.6979 29.834 13.0104 29.5801 13.4336C29.3327 13.8503 29.1374 14.2897 28.9941 14.752C28.8509 15.2077 28.7533 15.6048 28.7012 15.9434L28.6133 16.4414L26.2695 15.5625C26.7057 14.4622 27.4512 13.5833 28.5059 12.9258C29.5605 12.2617 30.7487 11.9297 32.0703 11.9297C32.8516 11.9297 33.6068 12.0534 34.3359 12.3008L34.4336 12.3398C35.1562 12.6068 35.7812 12.9648 36.3086 13.4141C36.3802 13.4661 36.4453 13.5182 36.5039 13.5703C36.5625 13.6224 36.6146 13.6777 36.6602 13.7363C36.7122 13.7754 36.7578 13.821 36.7969 13.873C37.0573 14.1465 37.2819 14.4395 37.4707 14.752C37.6009 14.9603 37.7083 15.1654 37.793 15.3672C37.9818 15.8359 38.099 16.2721 38.1445 16.6758C38.1445 16.7344 38.151 16.7962 38.1641 16.8613V24.0195C36.9922 25.2565 35.7324 26.2819 34.3848 27.0957C34.3522 26.9329 34.3359 26.7637 34.3359 26.5879V18.834C33.7305 18.8991 32.9557 19.0358 32.0117 19.2441C31.263 19.446 30.5892 19.8984 29.9902 20.6016C29.1634 21.5651 28.75 22.9486 28.75 24.752C28.75 24.9863 28.7565 25.2305 28.7695 25.4844C28.8151 26.1745 28.9551 26.7246 29.1895 27.1348C29.4238 27.5384 29.7233 27.8249 30.0879 27.9941C30.459 28.1634 30.8691 28.248 31.3184 28.248C31.5918 28.248 31.8717 28.222 32.1582 28.1699C32.7051 28.0397 33.1803 27.9095 33.584 27.7793C33.8639 27.6882 34.0104 27.6426 34.0234 27.6426V27.6328L34.1309 27.6035C34.3522 27.5254 34.5215 27.4538 34.6387 27.3887L34.9316 27.2129C36.071 26.4902 37.1484 25.6113 38.1641 24.5762L38.3398 24.4004L38.6719 24.0391C39.349 23.2969 39.9251 22.5807 40.4004 21.8906C40.8757 21.194 41.3086 20.5137 41.6992 19.8496L42.041 19.293V16.6465C42.041 16.2168 42.0247 15.8457 41.9922 15.5332C41.9206 14.9538 41.8066 14.5078 41.6504 14.1953C41.5267 13.9479 41.39 13.7819 41.2402 13.6973C41.1621 13.6452 41.097 13.6191 41.0449 13.6191V13.4531C41.3965 13.4531 41.7285 13.4434 42.041 13.4238C43.2324 13.3392 44.1602 13.1309 44.8242 12.7988C45.3125 12.5514 45.6348 12.3008 45.791 12.0469L45.8691 11.9102V14.498L46.1133 14.2832L46.5137 13.9316C46.9759 13.554 47.4609 13.2285 47.9688 12.9551C49.2513 12.2715 50.5599 11.9297 51.8945 11.9297H52.0508C53.0794 11.9753 54.0039 12.1706 54.8242 12.5156C54.8633 12.5352 54.9056 12.5514 54.9512 12.5645C56.2598 13.1504 57.2461 14.0521 57.9102 15.2695C58.3203 14.7812 58.7695 14.3353 59.2578 13.9316C60.957 12.597 62.7539 11.9297 64.6484 11.9297H64.7949C65.8366 11.9753 66.7741 12.1771 67.6074 12.5352L67.6855 12.5645C68.8314 13.0723 69.7331 13.8372 70.3906 14.8594C71.0547 15.875 71.3867 16.9948 71.3867 18.2188V26.4121C71.4453 27.2389 71.6276 27.8574 71.9336 28.2676C72.1549 28.5736 72.3861 28.7591 72.627 28.8242L72.7539 28.8633V28.9805H66.2012V28.8633L66.3281 28.8242C66.569 28.7591 66.8001 28.5736 67.0215 28.2676C67.321 27.8574 67.5 27.2389 67.5586 26.4121V16.8418C67.5521 16.5618 67.5228 16.2331 67.4707 15.8555C67.3405 14.9375 67.0573 14.166 66.6211 13.541C66.0612 12.7467 65.2604 12.3496 64.2188 12.3496L63.8379 12.3691C63.6165 12.3887 63.3984 12.4212 63.1836 12.4668C61.1914 12.903 59.4954 13.9674 58.0957 15.6602C58.4668 16.4674 58.6523 17.3203 58.6523 18.2188V26.4121C58.6849 26.8678 58.75 27.2487 58.8477 27.5547C58.9518 27.8542 59.069 28.0951 59.1992 28.2773C59.3294 28.4531 59.4564 28.5833 59.5801 28.668C59.7038 28.7526 59.8047 28.8047 59.8828 28.8242L60.0098 28.8633V28.9805H53.4668V28.8633L53.5938 28.8242C53.6784 28.8047 53.7826 28.7526 53.9062 28.668C54.0299 28.5833 54.1569 28.4531 54.2871 28.2773C54.4173 28.0951 54.5312 27.8542 54.6289 27.5547C54.7266 27.2487 54.7917 26.8678 54.8242 26.4121V16.8418C54.8177 16.5618 54.7852 16.2331 54.7266 15.8555C54.6745 15.4714 54.5801 15.0775 54.4434 14.6738C54.3132 14.2702 54.1243 13.8926 53.877 13.541C53.6296 13.1895 53.3105 12.903 52.9199 12.6816C52.5293 12.4603 52.0475 12.3496 51.4746 12.3496L51.0938 12.3691C50.0846 12.4863 49.1178 12.7923 48.1934 13.2871L47.8516 13.4824L47.4805 13.7461C47.2786 13.8698 47.0247 14.0521 46.7188 14.293C46.4974 14.4622 46.2728 14.6543 46.0449 14.8691C45.0749 15.8001 44.2839 16.6921 43.6719 17.5449C43.0664 18.3978 42.5228 19.2311 42.041 20.0449C41.6374 20.722 41.1947 21.4121 40.7129 22.1152C39.9967 23.1634 39.1471 24.1693 38.1641 25.1328V25.9629C38.1641 26.9395 38.3268 27.6784 38.6523 28.1797C38.8802 28.5378 39.1276 28.7559 39.3945 28.834L39.5312 28.873V28.9902H36.7383C36.0091 28.9902 35.4004 28.7103 34.9121 28.1504C34.8275 28.0527 34.7493 27.9453 34.6777 27.8281L34.2285 27.9844C33.5319 28.2318 32.5846 28.4824 31.3867 28.7363C30.4232 28.9251 29.5605 29.0195 28.7988 29.0195ZM80.2832 29.0781H73.7305V28.9609L73.8574 28.9219C73.9355 28.9023 74.0365 28.8503 74.1602 28.7656C74.2904 28.681 74.4206 28.5508 74.5508 28.375C74.681 28.1992 74.7949 27.9616 74.8926 27.6621C74.9902 27.3561 75.0553 26.9753 75.0879 26.5195V16.7344C75.0879 16.3047 75.0684 15.9336 75.0293 15.6211C74.9967 15.3021 74.9512 15.0352 74.8926 14.8203C74.834 14.599 74.7689 14.4199 74.6973 14.2832C74.6257 14.14 74.554 14.0293 74.4824 13.9512C74.4108 13.873 74.3457 13.8177 74.2871 13.7852C74.2285 13.7461 74.1829 13.7233 74.1504 13.7168L74.0918 13.707V13.541C74.4499 13.541 74.7819 13.5312 75.0879 13.5117C75.752 13.4661 76.3086 13.388 76.7578 13.2773C77.2135 13.1602 77.5846 13.0299 77.8711 12.8867C78.1576 12.7435 78.3757 12.6068 78.5254 12.4766C78.6816 12.3398 78.7858 12.2259 78.8379 12.1348L78.916 11.998V14.5957C79.1243 14.3939 79.3392 14.2018 79.5605 14.0195C81.2272 12.6849 83.0436 12.0176 85.0098 12.0176H85.0977C86.1328 12.0566 87.0996 12.2682 87.998 12.6523C89.3066 13.2383 90.2897 14.14 90.9473 15.3574C91.3639 14.8626 91.8132 14.4167 92.2949 14.0195C93.9681 12.6849 95.7878 12.0176 97.7539 12.0176H97.8418C98.8704 12.0566 99.7917 12.252 100.605 12.6035C100.651 12.6165 100.693 12.6328 100.732 12.6523C101.872 13.1536 102.773 13.9154 103.438 14.9375C104.102 15.9596 104.434 17.0827 104.434 18.3066V26.5C104.466 26.9557 104.531 27.3366 104.629 27.6426C104.733 27.9421 104.85 28.1797 104.98 28.3555C105.111 28.5312 105.238 28.6615 105.361 28.7461C105.485 28.8307 105.589 28.8828 105.674 28.9023L105.801 28.9414V29.0586H99.248V28.9414L99.375 28.9023C99.4596 28.8828 99.5638 28.8307 99.6875 28.7461C99.8112 28.6615 99.9382 28.5312 100.068 28.3555C100.199 28.1797 100.312 27.9421 100.41 27.6426C100.508 27.3366 100.573 26.9557 100.605 26.5V16.9297C100.599 16.5586 100.547 16.1126 100.449 15.5918C100.358 15.071 100.182 14.5599 99.9219 14.0586C99.668 13.5508 99.2969 13.1439 98.8086 12.8379C98.3984 12.5775 97.8776 12.4473 97.2461 12.4473C96.9206 12.4473 96.582 12.4831 96.2305 12.5547H96.2207C94.2285 12.9844 92.5358 14.0488 91.1426 15.748C91.5137 16.5553 91.6992 17.4082 91.6992 18.3066V26.5C91.7318 26.9557 91.7969 27.3366 91.8945 27.6426C91.9987 27.9421 92.1159 28.1797 92.2461 28.3555C92.3763 28.5312 92.5033 28.6615 92.627 28.7461C92.7507 28.8307 92.8548 28.8828 92.9395 28.9023L93.0566 28.9414V29.0586H86.5137V28.9414L86.6406 28.9023C86.7188 28.8828 86.8197 28.8307 86.9434 28.7461C87.0736 28.6615 87.2005 28.5312 87.3242 28.3555C87.4544 28.1797 87.5684 27.9421 87.666 27.6426C87.7702 27.3366 87.8385 26.9557 87.8711 26.5V16.9297C87.8646 16.5586 87.8125 16.1126 87.7148 15.5918C87.6172 15.071 87.4414 14.5599 87.1875 14.0586C86.9336 13.5508 86.5625 13.1439 86.0742 12.8379C85.6576 12.5775 85.1335 12.4473 84.502 12.4473C84.1829 12.4473 83.8444 12.4831 83.4863 12.5547C81.748 12.9258 80.2246 13.7949 78.916 15.1621V26.5098C78.9746 27.3301 79.1569 27.9486 79.4629 28.3652C79.6842 28.6777 79.9154 28.8633 80.1562 28.9219L80.2832 28.9609V29.0781ZM111.436 45.5625C111.201 45.5625 110.964 45.5299 110.723 45.4648C109.714 45.1719 108.945 44.5794 108.418 43.6875C108.001 42.9258 107.793 42.0632 107.793 41.0996C107.793 40.0905 108.027 38.9902 108.496 37.7988C108.743 37.1738 109.004 36.5651 109.277 35.9727L112.432 28.9805L106.221 14.7715C105.928 14.14 105.615 13.6387 105.283 13.2676C104.951 12.8965 104.635 12.623 104.336 12.4473C104.043 12.2715 103.802 12.1576 103.613 12.1055L103.33 12.0371V11.9199H110.811V12.0371L110.732 12.0566C110.68 12.0697 110.615 12.099 110.537 12.1445C110.459 12.1836 110.381 12.2454 110.303 12.3301C110.225 12.4147 110.156 12.5286 110.098 12.6719C110.046 12.8151 110.02 12.9909 110.02 13.1992C110.02 13.668 110.173 14.2507 110.479 14.9473L114.521 24.1953L118.623 14.8105C118.688 14.6738 118.753 14.4948 118.818 14.2734C118.955 13.8438 119.023 13.4889 119.023 13.209C119.023 12.9941 118.994 12.8151 118.936 12.6719C118.883 12.5286 118.818 12.4147 118.74 12.3301C118.662 12.2454 118.584 12.1836 118.506 12.1445C118.428 12.099 118.363 12.0697 118.311 12.0566L118.232 12.0371V11.9199H121.963V12.0371L121.68 12.1055C121.497 12.151 121.26 12.2617 120.967 12.4375C120.674 12.6068 120.361 12.8737 120.029 13.2383C119.704 13.5964 119.395 14.0846 119.102 14.7031L111.611 31.7539C113.102 34.5078 113.991 37.4928 114.277 40.709C114.31 41.0345 114.326 41.3438 114.326 41.6367C114.326 43.362 113.828 44.5469 112.832 45.1914C112.467 45.4128 112.061 45.5332 111.611 45.5527L111.436 45.5625ZM112.061 42.6328C112.516 42.6328 112.871 42.5091 113.125 42.2617C113.379 42.0208 113.555 41.7214 113.652 41.3633C113.757 41.0052 113.809 40.6471 113.809 40.2891C113.809 40.1393 113.802 39.9928 113.789 39.8496C113.444 37.1283 112.65 34.5794 111.406 32.2031C109.876 35.6081 109.056 37.444 108.945 37.7109V37.7207C108.926 37.7598 108.89 37.9095 108.838 38.1699C108.786 38.4368 108.76 38.7591 108.76 39.1367C108.76 39.5013 108.812 39.8887 108.916 40.2988C109.02 40.7155 109.219 41.1029 109.512 41.4609C109.805 41.819 110.225 42.112 110.771 42.3398C111.273 42.5352 111.702 42.6328 112.061 42.6328Z" fill="#89734B"/>
<path d="M25.293 56.0098V55.8926L25.4199 55.8535C25.6608 55.7884 25.8919 55.6029 26.1133 55.2969C26.4193 54.8867 26.6016 54.2682 26.6602 53.4414V30.4043C26.6016 29.6035 26.429 28.998 26.1426 28.5879C25.9147 28.2624 25.6771 28.0638 25.4297 27.9922L25.293 27.9531V27.8359C34.2773 27.8359 38.8216 27.8392 38.9258 27.8457C40.026 27.9108 41.0156 28.2233 41.8945 28.7832C42.7799 29.3431 43.4831 30.0788 44.0039 30.9902C44.5312 31.9017 44.7949 32.9108 44.7949 34.0176C44.7949 34.8965 44.6224 35.7233 44.2773 36.498C43.9323 37.2663 43.457 37.9368 42.8516 38.5098C42.2526 39.0762 41.556 39.5091 40.7617 39.8086C42.2201 39.8802 43.5319 40.2806 44.6973 41.0098C45.8691 41.7389 46.8034 42.7057 47.5 43.9102C48.1966 45.1146 48.5449 46.4427 48.5449 47.8945C48.5449 49.3854 48.1803 50.7461 47.4512 51.9766C46.722 53.2005 45.7422 54.1771 44.5117 54.9062C43.2878 55.6354 41.9336 56 40.4492 56L25.293 56.0098ZM39.6387 39.7988C39.7298 39.7598 39.8177 39.7109 39.9023 39.6523C40.5664 39.2227 41.1068 38.5033 41.5234 37.4941C41.9401 36.4785 42.1484 35.3197 42.1484 34.0176C42.1484 33.1257 42.0475 32.2956 41.8457 31.5273C41.6439 30.7526 41.3672 30.0885 41.0156 29.5352C40.638 29.0078 40.2507 28.6595 39.8535 28.4902C39.4564 28.321 39.1439 28.2363 38.916 28.2363H38.8867C38.7044 28.2298 37.3698 28.2266 34.8828 28.2266H31.3184C30.8431 28.5977 30.5664 29.3236 30.4883 30.4043V39.7988H39.6387ZM39.5215 55.6094C40.4199 55.3359 41.2174 54.8314 41.9141 54.0957C42.6107 53.36 43.1608 52.4583 43.5645 51.3906C43.9746 50.3164 44.1797 49.151 44.1797 47.8945C44.1797 46.6445 43.9746 45.4857 43.5645 44.418C43.1608 43.3438 42.6107 42.4388 41.9141 41.7031C41.2174 40.9674 40.4199 40.4629 39.5215 40.1895H30.4883V53.4414C30.5664 54.5156 30.8366 55.2383 31.2988 55.6094H39.5215ZM58.3594 56.1562C57.2917 56.1562 56.2467 55.9609 55.2246 55.5703C54.2025 55.1797 53.2747 54.5872 52.4414 53.793C51.556 52.9531 50.8854 51.9863 50.4297 50.8926C49.9805 49.7988 49.7559 48.6693 49.7559 47.5039C49.7559 46.638 49.8861 45.7852 50.1465 44.9453C50.4069 44.099 50.7975 43.3079 51.3184 42.5723C52.5098 40.8926 54.0885 39.7728 56.0547 39.2129C56.8294 38.9915 57.6009 38.8809 58.3691 38.8809C59.6712 38.8809 60.9115 39.1641 62.0898 39.7305C63.2747 40.2969 64.2839 41.0814 65.1172 42.084C65.9505 43.0866 66.5169 44.252 66.8164 45.5801H53.8965C53.8965 46.8952 54.0723 48.2298 54.4238 49.584C54.7754 50.9316 55.3125 52.1686 56.0352 53.2949C56.2891 53.6855 56.5885 54.0632 56.9336 54.4277C57.2786 54.7858 57.6595 55.0853 58.0762 55.3262C58.4993 55.5671 58.9551 55.6875 59.4434 55.6875C59.6322 55.6745 59.821 55.6517 60.0098 55.6191C60.6022 55.4434 61.0872 55.1113 61.4648 54.623C62.0117 53.9329 62.4023 53.0475 62.6367 51.9668L65.6543 52.2109C64.821 53.5065 63.75 54.4896 62.4414 55.1602C61.1393 55.8242 59.7786 56.1562 58.3594 56.1562ZM62.2949 45.1895C62.0085 44.1868 61.6309 43.2526 61.1621 42.3867C60.6934 41.5208 60.0879 40.7721 59.3457 40.1406C58.7598 39.6393 58.0924 39.3724 57.3438 39.3398C57.0898 39.3724 56.8392 39.418 56.5918 39.4766C56.1751 39.6328 55.8171 39.877 55.5176 40.209C55.0749 40.6842 54.7201 41.293 54.4531 42.0352C54.1081 43.0508 53.9258 44.1022 53.9062 45.1895H62.2949ZM73.7402 56H73.6523C72.7474 55.987 71.7708 55.7949 70.7227 55.4238C69.8698 55.1048 69.1602 54.7826 68.5938 54.457C68.151 54.2031 67.8158 54.0013 67.5879 53.8516L70.1953 50.4531L70.2832 50.5215L70.2441 50.6289C70.2246 50.694 70.2148 50.7917 70.2148 50.9219C70.2148 51.2018 70.2962 51.5013 70.459 51.8203L70.7422 52.2793H70.752C71.2402 53.041 71.8034 53.7083 72.4414 54.2812C73.2682 55.0169 74.0951 55.3848 74.9219 55.3848C75.0977 55.3848 75.2734 55.3685 75.4492 55.3359C75.7812 55.2188 76.1035 55.056 76.416 54.8477L76.6211 54.7012C77.0182 54.3301 77.2168 53.8613 77.2168 53.2949C77.2168 53.1191 77.2005 52.9499 77.168 52.7871C77.0182 52.1816 76.7611 51.6543 76.3965 51.2051C76.097 50.847 75.7292 50.4727 75.293 50.082C74.694 49.5417 74.0625 49.0306 73.3984 48.5488C72.7344 48.0605 72.1224 47.6243 71.5625 47.2402L70.791 46.7129C68.8835 45.3783 67.8841 44.0469 67.793 42.7188V42.5527C67.793 41.5762 68.2878 40.6322 69.2773 39.7207C70.0391 39.0241 71.11 38.6758 72.4902 38.6758C73.2259 38.6758 74.0397 38.7799 74.9316 38.9883C75.8301 39.1966 76.5918 39.4245 77.2168 39.6719C77.8483 39.9128 78.2454 40.0755 78.4082 40.1602L76.9238 43.6562L76.8164 43.6172L76.7383 43.3047C76.6927 43.1029 76.569 42.8392 76.3672 42.5137C76.1719 42.1882 75.8626 41.8398 75.4395 41.4688C75.0033 41.1302 74.5312 40.8047 74.0234 40.4922C73.5221 40.1732 73.0143 39.9062 72.5 39.6914C71.9857 39.4766 71.5007 39.3691 71.0449 39.3691C70.7389 39.3691 70.4557 39.431 70.1953 39.5547C69.7266 39.7956 69.4922 40.0104 69.4922 40.1992C69.4922 40.5378 69.821 41.026 70.4785 41.6641C71.3444 42.5039 72.8581 43.6107 75.0195 44.9844C76.0872 45.6615 76.9303 46.3288 77.5488 46.9863C78.877 48.1908 79.541 49.418 79.541 50.668C79.541 51.5339 79.2448 52.3737 78.6523 53.1875C78.2292 53.7734 77.6855 54.3366 77.0215 54.877C76.9043 54.9746 76.7741 55.0723 76.6309 55.1699C75.8105 55.7233 74.847 56 73.7402 56ZM87.7148 56C87.1615 56 86.6341 55.9219 86.1328 55.7656C85.0781 55.4271 84.2057 54.8411 83.5156 54.0078C82.8255 53.168 82.4219 52.1816 82.3047 51.0488C82.2917 50.9382 82.2852 50.7786 82.2852 50.5703C82.2852 50.4141 82.2917 50.2578 82.3047 50.1016V39.3496H79.4922V38.959H82.3047V38.627C82.2982 38.2103 82.2754 37.849 82.2363 37.543C82.2038 37.2305 82.1582 36.9701 82.0996 36.7617C82.041 36.5469 81.9759 36.3711 81.9043 36.2344C81.8327 36.0977 81.7611 35.9902 81.6895 35.9121C81.6178 35.834 81.5527 35.7786 81.4941 35.7461C81.4355 35.7135 81.39 35.6908 81.3574 35.6777L81.2988 35.668V35.5117C81.6569 35.5117 81.9922 35.4987 82.3047 35.4727C83.112 35.4141 83.7695 35.3099 84.2773 35.1602C84.7852 35.0039 85.1725 34.8379 85.4395 34.6621C85.7064 34.4798 85.8887 34.3236 85.9863 34.1934C86.084 34.0566 86.1328 33.9818 86.1328 33.9688V38.959H92.4219V39.3496H86.1328V50.0918C86.1328 50.9837 86.1882 51.9212 86.2988 52.9043C86.4876 54.6035 86.8555 55.502 87.4023 55.5996H87.4512C87.7181 55.5996 87.9427 55.541 88.125 55.4238C88.3138 55.3001 88.4668 55.1504 88.584 54.9746C88.7077 54.7988 88.7988 54.623 88.8574 54.4473C88.9225 54.2715 88.9681 54.125 88.9941 54.0078L89.0332 53.8223L90.3613 55.3164C89.554 55.7721 88.6719 56 87.7148 56ZM99.7461 56.166C97.9883 56.166 96.3444 55.6419 94.8145 54.5938C92.8809 53.2135 91.696 51.3548 91.2598 49.0176C91.1686 48.5098 91.123 48.002 91.123 47.4941C91.123 45.7363 91.6439 44.0924 92.6855 42.5625C94.0788 40.6289 95.9375 39.444 98.2617 39.0078C98.7695 38.9167 99.2773 38.8711 99.7852 38.8711C101.543 38.8711 103.19 39.3952 104.727 40.4434C106.647 41.8236 107.832 43.6823 108.281 46.0195C108.372 46.5208 108.418 47.0221 108.418 47.5234C108.418 49.2812 107.894 50.9316 106.846 52.4746C105.459 54.4017 103.6 55.5866 101.27 56.0293C100.762 56.1204 100.254 56.166 99.7461 56.166ZM100.801 55.6777L101.025 55.668L101.387 55.6094C102.285 55.349 102.988 54.6491 103.496 53.5098C104.01 52.3704 104.268 50.9967 104.268 49.3887C104.268 48.5488 104.189 47.6699 104.033 46.752C103.773 45.3262 103.369 44.0566 102.822 42.9434C102.275 41.8301 101.644 40.9512 100.928 40.3066C100.212 39.6556 99.4792 39.3301 98.7305 39.3301C98.6003 39.3496 98.4701 39.3724 98.3398 39.3984C98.2096 39.418 98.0827 39.4408 97.959 39.4668C97.1191 39.7858 96.4616 40.5052 95.9863 41.625C95.5111 42.7383 95.2734 44.0697 95.2734 45.6191C95.2734 46.459 95.3516 47.3379 95.5078 48.2559C95.7682 49.6816 96.1686 50.9512 96.709 52.0645C97.2559 53.1777 97.8874 54.0599 98.6035 54.7109C99.3197 55.3555 100.052 55.6777 100.801 55.6777ZM124.541 56H124.111L120.107 46.8398L116.104 56H115.674C111.585 46.651 109.518 41.918 109.473 41.8008C109.18 41.1628 108.867 40.6582 108.535 40.2871C107.969 39.6556 107.409 39.2682 106.855 39.125L106.572 39.0566V38.9395H114.062V39.0566L113.984 39.0762C113.828 39.1152 113.685 39.2096 113.555 39.3594C113.366 39.5612 113.271 39.8542 113.271 40.2383C113.271 40.7005 113.421 41.2799 113.721 41.9766L117.764 51.2246L119.893 46.3516C118.617 43.4349 117.956 41.918 117.91 41.8008C117.617 41.1628 117.305 40.6582 116.973 40.2871C116.406 39.6556 115.846 39.2682 115.293 39.125L115.01 39.0566V38.9395H125.205V39.0566L124.922 39.125C124.388 39.2617 123.841 39.6393 123.281 40.2578C122.91 40.6615 122.549 41.2604 122.197 42.0547L126.201 51.2246C128.981 44.8639 130.397 41.6055 130.449 41.4492L130.508 41.3027C130.638 40.873 130.703 40.5182 130.703 40.2383C130.703 40.0169 130.674 39.8346 130.615 39.6914C130.563 39.5482 130.498 39.4342 130.42 39.3496C130.342 39.265 130.264 39.2031 130.186 39.1641C130.114 39.1185 130.049 39.0892 129.99 39.0762L129.912 39.0566V38.9395H133.643V39.0566L133.359 39.125C133.177 39.1706 132.939 39.2812 132.646 39.457C132.354 39.6263 132.041 39.8932 131.709 40.2578C131.383 40.6159 131.074 41.1042 130.781 41.7227L124.541 56ZM121.982 41.5371L122.07 41.3027C122.201 40.873 122.266 40.5182 122.266 40.2383C122.266 39.8542 122.171 39.5612 121.982 39.3594C121.8 39.5612 121.709 39.8542 121.709 40.2383C121.709 40.5703 121.8 41.0033 121.982 41.5371ZM139.824 56.1562C138.757 56.1562 137.712 55.9609 136.689 55.5703C135.667 55.1797 134.74 54.5872 133.906 53.793C133.021 52.9531 132.35 51.9863 131.895 50.8926C131.445 49.7988 131.221 48.6693 131.221 47.5039C131.221 46.638 131.351 45.7852 131.611 44.9453C131.872 44.099 132.262 43.3079 132.783 42.5723C133.975 40.8926 135.553 39.7728 137.52 39.2129C138.294 38.9915 139.066 38.8809 139.834 38.8809C141.136 38.8809 142.376 39.1641 143.555 39.7305C144.74 40.2969 145.749 41.0814 146.582 42.084C147.415 43.0866 147.982 44.252 148.281 45.5801H135.361C135.361 46.8952 135.537 48.2298 135.889 49.584C136.24 50.9316 136.777 52.1686 137.5 53.2949C137.754 53.6855 138.053 54.0632 138.398 54.4277C138.743 54.7858 139.124 55.0853 139.541 55.3262C139.964 55.5671 140.42 55.6875 140.908 55.6875C141.097 55.6745 141.286 55.6517 141.475 55.6191C142.067 55.4434 142.552 55.1113 142.93 54.623C143.477 53.9329 143.867 53.0475 144.102 51.9668L147.119 52.2109C146.286 53.5065 145.215 54.4896 143.906 55.1602C142.604 55.8242 141.243 56.1562 139.824 56.1562ZM143.76 45.1895C143.473 44.1868 143.096 43.2526 142.627 42.3867C142.158 41.5208 141.553 40.7721 140.811 40.1406C140.225 39.6393 139.557 39.3724 138.809 39.3398C138.555 39.3724 138.304 39.418 138.057 39.4766C137.64 39.6328 137.282 39.877 136.982 40.209C136.54 40.6842 136.185 41.293 135.918 42.0352C135.573 43.0508 135.391 44.1022 135.371 45.1895H143.76ZM158.086 56.0977C156.934 56.0977 155.837 55.8828 154.795 55.4531C153.753 55.0169 152.822 54.3919 152.002 53.5781C151.182 52.7578 150.553 51.8268 150.117 50.7852C149.688 49.737 149.473 48.64 149.473 47.4941C149.473 46.3418 149.688 45.2448 150.117 44.2031C150.553 43.1615 151.182 42.2305 152.002 41.4102C152.822 40.5898 153.753 39.9648 154.795 39.5352C155.837 39.1055 156.934 38.8906 158.086 38.8906C158.555 38.8906 159.017 38.9264 159.473 38.998C161.27 39.2975 162.829 40.0951 164.15 41.3906V32.5625C164.15 31.7682 164.085 31.1302 163.955 30.6484C163.851 30.2513 163.714 29.9616 163.545 29.7793C163.428 29.6426 163.317 29.5645 163.213 29.5449L163.154 29.5352V29.3691C163.512 29.3691 163.844 29.3594 164.15 29.3398C165.348 29.2552 166.276 29.0469 166.934 28.7148C167.422 28.4674 167.744 28.2168 167.9 27.9629L167.988 27.8262V53.4316C168.021 53.8939 168.086 54.2747 168.184 54.5742C168.281 54.8737 168.395 55.1146 168.525 55.2969C168.656 55.4727 168.783 55.6029 168.906 55.6875C169.03 55.7721 169.134 55.8242 169.219 55.8438L169.346 55.8828V56H162.793V55.8828L162.91 55.8535C162.995 55.8275 163.096 55.7754 163.213 55.6973C163.337 55.6191 163.46 55.4987 163.584 55.3359C163.714 55.1667 163.828 54.9421 163.926 54.6621C164.03 54.3822 164.102 54.0306 164.141 53.6074C162.819 54.8965 161.263 55.6908 159.473 55.9902C159.017 56.0618 158.555 56.0977 158.086 56.0977ZM158.965 55.5703C159.284 55.5703 159.635 55.541 160.02 55.4824C160.885 55.2676 161.689 54.9258 162.432 54.457C163.076 54.0534 163.649 53.5749 164.15 53.0215V41.9668C163.649 41.4069 163.076 40.9251 162.432 40.5215C161.611 40.0072 160.71 39.6491 159.727 39.4473C159.551 39.4082 159.274 39.3887 158.896 39.3887C158.519 39.3887 158.092 39.4733 157.617 39.6426C157.142 39.8118 156.673 40.1211 156.211 40.5703L156.055 40.7461C155.371 41.5273 154.831 42.5039 154.434 43.6758C154.036 44.8411 153.838 46.1139 153.838 47.4941C153.838 49.0436 154.085 50.4531 154.58 51.7227C155.348 53.7083 156.423 54.9355 157.803 55.4043C158.135 55.515 158.522 55.5703 158.965 55.5703Z" fill="#383232"/>
</svg>
